<mxfile host="Electron" modified="2023-12-23T09:23:00.864Z" agent="Mozilla/5.0 (X11; Linux x86_64) AppleWebKit/537.36 (KHTML, like Gecko) draw.io/22.1.2 Chrome/114.0.5735.289 Electron/25.9.4 Safari/537.36" etag="nVUt8l3nrmGeMbOKvQN4" version="22.1.2" type="device">
  <diagram name="Page-1" id="sXCmPrJdI40Flx_d11Do">
    <mxGraphModel dx="939" dy="574" grid="1" gridSize="10" guides="1" tooltips="1" connect="1" arrows="1" fold="1" page="1" pageScale="1" pageWidth="827" pageHeight="1169" math="0" shadow="0">
      <root>
        <mxCell id="0" />
        <mxCell id="1" parent="0" />
        <mxCell id="RrXciiKIeqz7K7-Z4A07-8" value="python project&lt;br&gt;container" style="shape=cube;whiteSpace=wrap;html=1;boundedLbl=1;backgroundOutline=1;darkOpacity=0.05;darkOpacity2=0.1;size=10;flipH=1;verticalAlign=bottom;align=center;labelPosition=center;verticalLabelPosition=top;" vertex="1" parent="1">
          <mxGeometry x="160" y="40" width="610" height="480" as="geometry" />
        </mxCell>
        <mxCell id="RrXciiKIeqz7K7-Z4A07-10" value="" style="edgeStyle=orthogonalEdgeStyle;rounded=0;orthogonalLoop=1;jettySize=auto;html=1;" edge="1" parent="1" source="RrXciiKIeqz7K7-Z4A07-1" target="RrXciiKIeqz7K7-Z4A07-9">
          <mxGeometry relative="1" as="geometry" />
        </mxCell>
        <mxCell id="RrXciiKIeqz7K7-Z4A07-1" value="prepare container&lt;br&gt;manualy" style="rounded=0;whiteSpace=wrap;html=1;" vertex="1" parent="1">
          <mxGeometry x="170" y="60" width="100" height="30" as="geometry" />
        </mxCell>
        <mxCell id="RrXciiKIeqz7K7-Z4A07-15" value="" style="edgeStyle=orthogonalEdgeStyle;rounded=0;orthogonalLoop=1;jettySize=auto;html=1;" edge="1" parent="1" source="RrXciiKIeqz7K7-Z4A07-3" target="RrXciiKIeqz7K7-Z4A07-14">
          <mxGeometry relative="1" as="geometry" />
        </mxCell>
        <mxCell id="RrXciiKIeqz7K7-Z4A07-3" value="prepare container from agent" style="rounded=0;whiteSpace=wrap;html=1;" vertex="1" parent="1">
          <mxGeometry x="170" y="390" width="100" height="40" as="geometry" />
        </mxCell>
        <mxCell id="RrXciiKIeqz7K7-Z4A07-9" value="&lt;div style=&quot;&quot;&gt;&lt;span style=&quot;background-color: initial;&quot;&gt;install root &lt;b&gt;sudo apt install&lt;/b&gt;&amp;nbsp;&lt;/span&gt;&lt;/div&gt;&amp;nbsp;- python, python3-pip, python3-venv, pkg-config, default-libmysqlclient-dev&lt;br&gt;create user&amp;nbsp;&lt;b&gt;sudo useradd meloman&lt;/b&gt;&lt;br&gt;&lt;br&gt;as &amp;lt;meloman&amp;gt; &lt;b&gt;prepare python environment&lt;/b&gt;&lt;br&gt;&amp;nbsp;-&amp;nbsp;python3 -m venv ~/.venvs/myenv&lt;br&gt;use eg:&lt;br&gt;&amp;nbsp;-&amp;nbsp;~/.venvs/foo/bin/python -m pip install &amp;lt;python_package&amp;gt;&lt;br&gt;&amp;nbsp;- ~/.venvs/foo/bin/python -m pip install -r requirements.txt&lt;br&gt;&lt;br&gt;&lt;b&gt;prepare environment variables&lt;/b&gt;&lt;br&gt;&lt;br&gt;delete old project -&amp;gt;&amp;nbsp;&lt;b style=&quot;border-color: var(--border-color);&quot;&gt;/var/app/&amp;lt;app_name&amp;gt;&lt;br&gt;&lt;/b&gt;&amp;nbsp;- might be conflict with read-only files&lt;br&gt;retrieve git files &lt;b&gt;git@gitlab.meloman.dev&lt;br&gt;&lt;/b&gt;&amp;nbsp;- preprare git credentials&lt;br&gt;move environment and project files into &lt;b&gt;/var/app/&amp;lt;app_name&amp;gt;&lt;br&gt;&lt;/b&gt;&lt;br&gt;todo:&lt;br&gt;learn making snapshots of old project&lt;br&gt;and symlinks to them when switching projects" style="rounded=0;whiteSpace=wrap;html=1;align=left;verticalAlign=top;" vertex="1" parent="1">
          <mxGeometry x="310" y="60" width="420" height="320" as="geometry" />
        </mxCell>
        <mxCell id="RrXciiKIeqz7K7-Z4A07-14" value="" style="whiteSpace=wrap;html=1;rounded=0;" vertex="1" parent="1">
          <mxGeometry x="310" y="390" width="120" height="40" as="geometry" />
        </mxCell>
      </root>
    </mxGraphModel>
  </diagram>
</mxfile>
